X-Men First class 2011 R5 - PRESTiGE

[img]http://leetleech.org/images/13530174178084517428.png[/img]
 
http://www.imdb.com/title/tt1270798/

File size                        : 705 MiB
Duration                         : 2h 6mn
Overall bit rate                 : 780 Kbps


Video
ID                               : 0
Format                           : MPEG-4 Visual
Format profile                   : Advanced Simple@L5
Format settings, BVOP            : 2
Format settings, QPel            : No
Format settings, GMC             : No warppoints
Format settings, Matrix          : Default (H.263)
Muxing mode                      : Packed bitstream
Codec ID                         : XVID
Codec ID/Hint                    : XviD
Duration                         : 2h 6mn
Bit rate                         : 643 Kbps
Width                            : 720 pixels
Height                           : 304 pixels
Display aspect ratio             : 2.35:1
Frame rate                       : 25.000 fps
Color space                      : YUV
Chroma subsampling               : 4:2:0
Bit depth                        : 8 bits
Scan type                        : Progressive
Compression mode                 : Lossy
Bits/(Pixel*Frame)               : 0.117
Stream size                      : 581 MiB (82%)
Writing library                  : XviD 1.2.0.dev47 (UTC 2006-11-01)

Audio
ID                               : 1
Format                           : MPEG Audio
Format version                   : Version 1
Format profile                   : Layer 3
Mode                             : Joint stereo
Mode extension                   : MS Stereo
Codec ID                         : 55
Codec ID/Hint                    : MP3
Duration                         : 2h 6mn
Bit rate mode                    : Constant
Bit rate                         : 128 Kbps
Channel(s)                       : 2 channels
Sampling rate                    : 44.1 KHz
Compression mode                 : Lossy
Delay relative to video          : 26ms
Stream size                      : 116 MiB (16%)
Alignment                        : Split accross interleaves
Interleave, duration             : 40 ms (1.00 video frame)
Interleave, preload duration     : 500 ms


[img]http://leetleech.org/images/71127130776089801699.png[/img]

Before Charles Xavier and Erik Lensherr took the names Professor X and Magneto,
 they were two young men discovering their powers for the first time. 
Before they were archenemies, they were closest of friends, working together,
 with other Mutants (some familiar, some new), to stop the greatest threat
 the world has ever known. In the process, a rift between them opened,
 which began the eternal war between Magneto's Brotherhood and Professor X's X-MEN.


[img]http://leetleech.org/images/10125376355615316589.png[/img]
 
http://www.leetleech.org/images/63096606573745222629.png 
http://www.leetleech.org/images/17722494848412880214.png 
http://www.leetleech.org/images/31032529820012325519.png 
http://www.leetleech.org/images/98848779205408645925.png

Greetz to my good  | Twisted | DiLLoN | Thorn | Flawl3ss | IMAGiNE | CTFX | BMB | akosipalos | HiTM4N | Bobwhite | whitestag13 |

The rest of PRESTiGE Rg and ALL groups past and present


[img]http://www.leetleech.org/images/14450873684736567373.png[/img]
[b][i][color=#FF0000]PRESTiGE is the level of respect at which one is regarded by others....RIzE Above Or Sink Below[/color][/i][/b][/align]
    Info hash: 7594D5CD687CF7F7D2A8F0BF8D16875A098423CA

[code]Tracker list 
http://nemesis.1337x.org/announce 
http://exodus.1337x.org/announce 
http://genesis.1337x.org:1337/announce 
http://nyaatorrents.info:3277/announce
[/code]

[img]http://torrent-stats.info/f0bf/159839e98.png[/img]